<?xml version="1.0" encoding="utf-8"?>
<!-- Generator: Adobe Illustrator 21.0.0, SVG Export Plug-In . SVG Version: 6.00 Build 0)  -->
<svg version="1.1" id="图层_1" xmlns="http://www.w3.org/2000/svg" xmlns:xlink="http://www.w3.org/1999/xlink" x="0px" y="0px"
	 viewBox="0 0 20 20" style="enable-background:new 0 0 20 20;" xml:space="preserve">
<style type="text/css">
	.st0{fill-rule:evenodd;clip-rule:evenodd;fill:#FFFFFF;}
	.st1{fill-rule:evenodd;clip-rule:evenodd;fill:#B0ADBC;}
</style>
<circle class="st0" cx="10" cy="10" r="10"/>
<path class="st1" d="M11.2,9.8l2.1,2.1c0.4,0.4,0.4,1,0,1.4s-1,0.4-1.4,0l-2.1-2.1l-2.1,2.1c-0.4,0.4-1,0.4-1.4,0
	c-0.4-0.4-0.4-1,0-1.4l2.1-2.1L6.3,7.7c-0.4-0.4-0.4-1,0-1.4c0.4-0.4,1-0.4,1.4,0l2.1,2.1l2.1-2.1c0.4-0.4,1-0.4,1.4,0s0.4,1,0,1.4
	L11.2,9.8L11.2,9.8z"/>
</svg>
