<?xml version="1.0" encoding="utf-8"?>
<!-- Generator: Adobe Illustrator 21.0.0, SVG Export Plug-In . SVG Version: 6.00 Build 0)  -->
<svg version="1.1" id="图层_1" xmlns="http://www.w3.org/2000/svg" xmlns:xlink="http://www.w3.org/1999/xlink" x="0px" y="0px"
	 viewBox="0 0 130 130" style="enable-background:new 0 0 130 130;" xml:space="preserve">
<style type="text/css">
	.st0{fill:#ECECEC;}
	.st1{fill:#EEEEEE;}
	.st2{fill:#DBDBDB;}
	.st3{fill:#C1C1C1;}
	.st4{fill:#858585;}
	.st5{fill:#ACACAC;}
	.st6{fill:#A0A0A0;}
	.st7{fill:#C6C6C6;}
	.st8{fill:#FFFFFF;}
	.st9{fill:#E9E9E9;}
	.st10{fill:#FF5050;}
</style>
<circle class="st0" cx="65" cy="63" r="35"/>
<circle class="st1" cx="96.5" cy="101.5" r="3.5"/>
<circle class="st2" cx="41" cy="31" r="3"/>
<circle class="st3" cx="106" cy="85" r="2"/>
<circle class="st4" cx="27" cy="41" r="2"/>
<polygon class="st5" points="25.2,92.6 22.6,94 23.1,91.1 21,89.1 23.9,88.6 25.2,86 26.5,88.6 29.4,89.1 27.3,91.1 27.8,94 "/>
<path class="st6" d="M58,82c0,0,2,6,7,6c5.6,0,7-6,7-6H58z"/>
<path class="st6" d="M65,40L65,40c2.2,0,4,1.8,4,4v3c0,2.2-1.8,4-4,4c-2.2,0-4-1.8-4-4v-3C61,41.8,62.8,40,65,40z"/>
<path class="st7" d="M45.6,76.1c3.2-4.7,4.8-8.2,4.8-10.5C50.4,53,57.2,46,65.1,46s14.9,7.1,14.9,20.5c0,2.1,1.5,5.3,4.4,9.6h0
	c0.4,0.6,0.6,1.3,0.6,2v1.4c0,1.4-1.1,2.5-2.5,2.5h-35c-1.4,0-2.5-1.1-2.5-2.5v0v-1.4C45,77.4,45.2,76.7,45.6,76.1z"/>
<polygon class="st8" points="43.2,56 41.2,57 41.6,54.8 40,53.3 42.2,53 43.2,51 44.1,53 46.3,53.3 44.7,54.8 45.1,57 "/>
<circle class="st9" cx="57.5" cy="60.5" r="1.5"/>
<path class="st9" d="M55.1,65.2c0.2-0.8,1-1.3,1.8-1.2c0.8,0.2,1.3,1,1.2,1.8c-0.6,3.1-1.8,5.7-3.3,7.7c-0.5,0.6-1.5,0.8-2.1,0.2
	c-0.6-0.5-0.8-1.5-0.2-2.1C53.6,70,54.5,67.9,55.1,65.2z"/>
<circle class="st10" cx="94.5" cy="38.5" r="9.5"/>
<path class="st8" d="M94.5,32L94.5,32c0.8,0,1.5,0.7,1.5,1.5v6c0,0.8-0.7,1.5-1.5,1.5S93,40.3,93,39.5v-6C93,32.7,93.7,32,94.5,32z"
	/>
<path class="st8" d="M94.5,42L94.5,42c0.8,0,1.5,0.7,1.5,1.5S95.3,45,94.5,45S93,44.3,93,43.5S93.7,42,94.5,42z"/>
</svg>
