<svg id="图层_1" data-name="图层 1" xmlns="http://www.w3.org/2000/svg" viewBox="0 0 20 20"><title>画板 1</title><g id="账号管理-悬停"><path id="Rectangle-11" d="M1.5,4.6,10,1l8.5,3.6C18.5,14.48,12,19,10,19S1.5,14.5,1.5,4.6ZM10,12.36l2,.86a.4.4,0,0,0,.24,0,.49.49,0,0,0,.45-.54l-.2-2.18L13.94,8.9a.39.39,0,0,0,.11-.22.51.51,0,0,0-.37-.6l-2.14-.47L10.43,5.73a.39.39,0,0,0-.18-.18.5.5,0,0,0-.68.18L8.46,7.61l-2.14.47a.53.53,0,0,0-.22.12.5.5,0,0,0,0,.7L7.5,10.54l-.2,2.18a.4.4,0,0,0,0,.24.49.49,0,0,0,.65.26Z" style="fill:#2589ff"/></g></svg>